PathFileType	4	(X/Y/Z)	/Users/itak/Documents/Research/Walk-IL/dataset/trc/00134_00007.trc
DataRate	CameraRate	NumFrames	NumMarkers	Units	OrigDataRate	OrigDataStartFrame	OrigNumFrames
100.000000	100.000000	4	53	mm	100.000000	371	742
Frame#	Time	RPSI			LPSI			L3			STRN			T10			C7			CLAV			RBAK			LBAK			LSHO			LUPA			LAEL			LAOL			LWTS			LWPS			LFRA			LIFD			LHPS			LHTS			RSHO			RUPA			RAEL			RAOL			RWTS			RWPS			RFRA			RIFD			RHTS			RHPS			RBHD			LFHD			RFHD			LBHD			LHIP			RHIP			RASI			LASI			LKNE			LTHI			LANK			LTIP			LTOE			LMT1			LMT5			LHEE			RKNE			RTHI			RANK			RTIP			RTOE			RMT1			RMT5			RHEE			
		X1	Y1	Z1	X2	Y2	Z2	X3	Y3	Z3	X4	Y4	Z4	X5	Y5	Z5	X6	Y6	Z6	X7	Y7	Z7	X8	Y8	Z8	X9	Y9	Z9	X10	Y10	Z10	X11	Y11	Z11	X12	Y12	Z12	X13	Y13	Z13	X14	Y14	Z14	X15	Y15	Z15	X16	Y16	Z16	X17	Y17	Z17	X18	Y18	Z18	X19	Y19	Z19	X20	Y20	Z20	X21	Y21	Z21	X22	Y22	Z22	X23	Y23	Z23	X24	Y24	Z24	X25	Y25	Z25	X26	Y26	Z26	X27	Y27	Z27	X28	Y28	Z28	X29	Y29	Z29	X30	Y30	Z30	X31	Y31	Z31	X32	Y32	Z32	X33	Y33	Z33	X34	Y34	Z34	X35	Y35	Z35	X36	Y36	Z36	X37	Y37	Z37	X38	Y38	Z38	X39	Y39	Z39	X40	Y40	Z40	X41	Y41	Z41	X42	Y42	Z42	X43	Y43	Z43	X44	Y44	Z44	X45	Y45	Z45	X46	Y46	Z46	X47	Y47	Z47	X48	Y48	Z48	X49	Y49	Z49	X50	Y50	Z50	X51	Y51	Z51	X52	Y52	Z52	X53	Y53	Z53	

372	3.71	-186.3385925292969	1091.801513671875	-476.8568115234375	-216.9190673828125	1109.73779296875	-607.0753784179688	-207.2388916015625	1136.831176757812	-543.5523071289062	19.0893669128418	1328.698120117188	-589.8546142578125	-234.5986633300781	1291.834106445312	-534.784423828125	-185.0318603515625	1580.69677734375	-550.0888671875	-10.73173141479492	1464.000244140625	-579.5692138671875	-232.3665466308594	1394.737915039062	-461.4930419921875	-212.3588409423828	1566.740356445312	-650.635009765625	-138.5021820068359	1554.012451171875	-730.5789794921875	-166.4788818359375	1434.156127929688	-813.3907470703125	-131.4859619140625	1228.787841796875	-884.2081909179688	-182.5451507568359	1194.105102539062	-823.4046020507812	23.35387802124023	999.9876708984375	-912.7724609375	-55.65860366821289	958.9978637695312	-932.872314453125	-95.71806335449219	1121.904052734375	-915.8903198242188	79.52913665771484	816.7589111328125	-930.7174072265625	-11.57366371154785	894.7485961914062	-953.972900390625	54.88423919677734	920.8524169921875	-945.9461669921875	-100.5544586181641	1548.645751953125	-382.7855529785156	-112.3116302490234	1473.716796875	-320.0070495605469	-146.8529510498047	1181.473266601562	-308.8351745605469	-162.6850738525391	1185.117797851562	-403.7901916503906	-30.09579086303711	927.6358642578125	-343.671142578125	-101.8935012817383	916.46875	-306.1608276367188	-128.7927398681641	1106.21435546875	-298.1409301757812	-27.27920532226562	733.6765747070312	-373.2107849121094	-10.53208351135254	816.8263549804688	-344.5439453125	-73.96150207519531	813.5978393554688	-308.9595947265625	-131.7302856445312	1744.505126953125	-474.5868225097656	45.76001739501953	1806.921142578125	-592.49658203125	39.38108825683594	1793.164184570312	-464.0837097167969	-132.3070526123047	1763.928955078125	-610.9171752929688	-167.1936645507812	1026.807373046875	-741.9238891601562	-36.49016952514648	986.9688720703125	-407.1708374023438	30.31527519226074	1062.34619140625	-473.7589721679688	-43.38843536376953	1079.324829101562	-730.0106811523438	-211.9878845214844	526.5259399414062	-724.2920532226562	-217.9304962158203	675.9248657226562	-740.750732421875	-383.905517578125	39.65740585327148	-671.775634765625	-347.4825439453125	294.6740417480469	-710.7946166992188	-145.1885681152344	33.5269889831543	-690.0023193359375	-214.2187194824219	39.83979797363281	-632.6045532226562	-274.265869140625	33.1114501953125	-737.0994262695312	-432.603515625	46.10538101196289	-592.2136840820312	121.4511642456055	541.2437744140625	-521.7062377929688	34.80309295654297	793.9641723632812	-435.0420532226562	145.3546142578125	31.77983093261719	-637.4811401367188	127.5523071289062	404.4412841796875	-536.0881958007812	360.8785705566406	107.5238418579102	-646.5983276367188	318.8148193359375	80.55265808105469	-698.1422729492188	266.1487426757812	64.49948883056641	-593.4146118164062	96.43871307373047	30.12251663208008	-692.8353881835938	
373	3.72	-177.9006042480469	1090.13916015625	-479.2920837402344	-208.3423156738281	1108.216552734375	-609.5217895507812	-198.7815856933594	1135.206298828125	-545.9606323242188	27.58568382263184	1327.092895507812	-591.3878173828125	-226.3430328369141	1290.187622070312	-537.1622314453125	-176.8815460205078	1579.1328125	-552.2913208007812	-1.996641755104065	1462.578002929688	-581.1869506835938	-224.4638977050781	1393.048583984375	-463.9096069335938	-203.6113891601562	1565.1962890625	-652.9338989257812	-129.4416656494141	1552.391235351562	-732.5152587890625	-156.7360992431641	1432.483032226562	-815.4202270507812	-120.6842575073242	1227.122314453125	-885.89306640625	-171.8417358398438	1192.188354492188	-825.3312377929688	36.33828353881836	999.7149047851562	-913.1996459960938	-42.17765045166016	957.8993530273438	-933.6295166015625	-83.90214538574219	1120.467041015625	-917.21875	94.8460693359375	817.448974609375	-930.522216796875	2.712150096893311	894.0707397460938	-954.3284912109375	68.88100433349609	920.861083984375	-946.0143432617188	-92.98272705078125	1546.886108398438	-384.5415649414062	-105.0678482055664	1471.913818359375	-321.8686218261719	-140.2992706298828	1179.725952148438	-311.5010070800781	-155.5246276855469	1183.53125	-406.5940551757812	-24.25815010070801	925.4852294921875	-345.9181823730469	-96.33686828613281	914.592529296875	-308.8816833496094	-122.5774078369141	1104.410400390625	-300.8273315429688	-22.04257011413574	731.5752563476562	-375.7350769042969	-5.179678440093994	814.5906982421875	-346.8638916015625	-68.79299926757812	811.6005249023438	-311.6746520996094	-124.167121887207	1742.881469726562	-476.6307373046875	54.52874755859375	1805.347534179688	-592.6756591796875	46.68558502197266	1791.473388671875	-464.2947692871094	-123.4905166625977	1762.281005859375	-612.8934936523438	-158.3527984619141	1025.44970703125	-744.3563232421875	-28.44383811950684	984.9353637695312	-409.4876098632812	38.68598175048828	1060.440307617188	-475.6688537597656	-34.54523849487305	1077.8798828125	-732.0317993164062	-206.1232147216797	525.5895385742188	-725.7551879882812	-210.8342437744141	675.0140380859375	-742.4647827148438	-383.6354370117188	40.49787902832031	-671.590576171875	-344.3943481445312	295.1273193359375	-711.5320434570312	-145.0531616210938	33.3498649597168	-690.1101684570312	-213.9924621582031	39.89802551269531	-632.6360473632812	-274.1407470703125	33.14666366577148	-736.9967041015625	-432.371826171875	47.71564865112305	-592.009521484375	124.8657836914062	537.813232421875	-522.32861328125	40.39456176757812	790.6865844726562	-436.6383361816406	170.3737487792969	31.08102416992188	-641.564697265625	135.3721313476562	402.2492370605469	-537.22216796875	383.3061218261719	114.848503112793	-645.5567016601562	343.3875732421875	86.6099853515625	-697.9074096679688	289.0370788574219	67.82831573486328	-594.5951538085938	122.5831832885742	28.57547950744629	-697.6459350585938	
374	3.73	-169.2599639892578	1088.503662109375	-481.607421875	-199.5848693847656	1106.720825195312	-611.8369140625	-190.1261901855469	1133.594848632812	-548.2330322265625	36.20904922485352	1325.527099609375	-592.78564453125	-217.9245452880859	1288.553833007812	-539.39111328125	-168.6183013916016	1577.593383789062	-554.33203125	6.845201969146729	1461.198852539062	-582.6619873046875	-216.4266510009766	1391.3701171875	-466.1782531738281	-194.7619171142578	1563.683715820312	-655.0805053710938	-120.2984619140625	1550.794799804688	-734.310302734375	-146.9381866455078	1430.814331054688	-817.2684326171875	-109.9418106079102	1225.4228515625	-887.3338623046875	-161.2065277099609	1190.2939453125	-826.9907836914062	49.08158111572266	999.301513671875	-913.2763671875	-28.9407958984375	956.7244873046875	-934.0293579101562	-72.22553253173828	1118.96875	-918.256103515625	109.6450576782227	817.8424072265625	-929.8440551757812	16.68899726867676	893.2792358398438	-954.2862548828125	82.58312225341797	920.72509765625	-945.6909790039062	-85.28287506103516	1545.162841796875	-386.1548156738281	-97.68019104003906	1470.138916015625	-323.5965881347656	-133.5380249023438	1178.00732421875	-314.0575866699219	-148.1594696044922	1181.981567382812	-409.2757568359375	-18.22347068786621	923.363037109375	-348.1029357910156	-90.56712341308594	912.7454833984375	-311.5165100097656	-116.1400756835938	1102.638427734375	-303.4058837890625	-16.62018775939941	729.5123901367188	-378.2223205566406	0.3492202162742615	812.3825073242188	-349.1528015136719	-63.41267013549805	809.6344604492188	-314.3266906738281	-116.5018844604492	1741.313598632812	-478.6080932617188	63.32688140869141	1803.784423828125	-592.6786499023438	54.06162261962891	1789.825073242188	-464.367431640625	-114.5801010131836	1760.679443359375	-614.7261352539062	-149.3231506347656	1024.144653320312	-746.6677856445312	-20.12731742858887	982.9385375976562	-411.6828002929688	47.17478942871094	1058.583618164062	-477.5102233886719	-25.53590393066406	1076.509399414062	-733.950927734375	-199.9168090820312	524.6932983398438	-727.2872314453125	-203.4231872558594	674.1488647460938	-744.21484375	-383.3746337890625	41.48152160644531	-671.5244750976562	-341.1229248046875	295.7023315429688	-712.3999633789062	-144.9134979248047	33.14655685424805	-690.2012939453125	-213.7648315429688	40.01255798339844	-632.717529296875	-274.0254211425781	33.15384292602539	-736.954345703125	-432.1403198242188	49.57068252563477	-591.9413452148438	128.5694885253906	534.5391235351562	-523.0660400390625	46.34807205200195	787.5433959960938	-438.3512878417969	193.7462005615234	30.85382080078125	-644.61328125	142.999755859375	400.262939453125	-538.2255249023438	404.0754089355469	121.8468933105469	-644.0396728515625	366.1224975585938	92.42234802246094	-697.0550537109375	310.3422546386719	71.21903228759766	-595.0530395507812	147.032958984375	27.57219123840332	-701.360107421875	
375	3.74	-160.4283905029297	1086.914306640625	-483.8111572265625	-190.6421966552734	1105.264282226562	-614.0343017578125	-181.2787475585938	1132.01611328125	-550.3823852539062	44.97540283203125	1324.027587890625	-594.045166015625	-209.3485260009766	1286.949462890625	-541.4862060546875	-160.227783203125	1576.090454101562	-556.2068481445312	15.76783275604248	1459.854125976562	-583.9664916992188	-208.2615203857422	1389.7138671875	-468.3092041015625	-185.8092193603516	1562.214721679688	-657.0744018554688	-111.0610580444336	1549.243774414062	-735.9632568359375	-137.0831756591797	1429.173217773438	-818.9384155273438	-99.25616455078125	1223.71044921875	-888.5396728515625	-150.6477813720703	1188.447631835938	-828.3934936523438	61.56817626953125	998.758056640625	-913.0118408203125	-15.9692850112915	955.4850463867188	-934.0859985351562	-60.69243621826172	1117.425415039062	-919.0117797851562	123.9329528808594	817.9662475585938	-928.7122192382812	30.33659553527832	892.383544921875	-953.8660278320312	95.9656982421875	920.4467163085938	-944.9896850585938	-77.45562744140625	1543.4921875	-387.6207885742188	-90.15946197509766	1468.406372070312	-325.1906127929688	-126.5753402709961	1176.331176757812	-316.5007019042969	-140.5794830322266	1180.483520507812	-411.8298034667969	-11.97953605651855	921.2896118164062	-350.2094421386719	-84.57685852050781	910.943115234375	-314.0569458007812	-109.4868011474609	1100.912231445312	-305.8700866699219	-10.98896884918213	727.5070190429688	-380.6574401855469	6.074306011199951	810.22412109375	-351.3927917480469	-57.81551361083984	807.7178955078125	-316.9070739746094	-108.7451324462891	1739.814331054688	-480.5223999023438	72.16213989257812	1802.2568359375	-592.50537109375	61.50934600830078	1788.237915039062	-464.3031005859375	-105.5708465576172	1759.142822265625	-616.4181518554688	-140.0943603515625	1022.897705078125	-748.8557739257812	-11.55425834655762	981.0181274414062	-413.7471313476562	55.79747772216797	1056.802490234375	-479.2630920410156	-16.34648704528809	1075.224487304688	-735.764892578125	-193.3589477539062	523.8381958007812	-728.9090576171875	-195.6895904541016	673.3323974609375	-746.0136108398438	-383.1260070800781	42.62674713134766	-671.6188354492188	-337.65673828125	296.4081420898438	-713.4310302734375	-144.7809448242188	32.92410659790039	-690.2733764648438	-213.5496520996094	40.18831634521484	-632.860107421875	-273.92431640625	33.13038635253906	-736.9884643554688	-431.9241333007812	51.69701766967773	-592.063720703125	132.7616882324219	531.4993896484375	-523.8987426757812	52.77077102661133	784.6158447265625	-440.158935546875	215.0953979492188	30.88968467712402	-646.74560546875	150.5299835205078	398.4664001464844	-539.11474609375	422.9796142578125	128.135986328125	-642.1781616210938	386.7618713378906	97.65764617919922	-695.7325439453125	329.77587890625	74.38662719726562	-594.9046630859375	169.4184112548828	26.88930130004883	-704.078125	
